<svg width="28" height="34" viewBox="0 0 28 34" fill="none" xmlns="http://www.w3.org/2000/svg">
<path d="M22.0282 31.1021V23.1526M6.12915 31.1021V23.1526" stroke="#8570AD" stroke-width="4.13225" stroke-linecap="round"/>
<path d="M19.6435 16.793H8.51413C5.89079 16.793 4.57911 16.793 3.76349 17.7247C3.30878 18.243 3.10845 18.9394 3.01942 19.9744C2.89699 21.4054 2.83499 22.1224 3.30719 22.6375C3.77939 23.1527 4.56322 23.1527 6.12927 23.1527H22.0283C23.5944 23.1527 24.3766 23.1527 24.8488 22.6375C25.3226 22.1224 25.2606 21.4069 25.1366 19.9744C25.0491 18.941 24.8472 18.2446 24.3925 17.7247C23.5785 16.793 22.2668 16.793 19.6435 16.793ZM6.12927 10.4334C6.12927 7.46029 6.12927 5.97532 6.76841 4.86874C7.18703 4.14372 7.7891 3.54164 8.51413 3.12303C9.62071 2.48389 11.1057 2.48389 14.0788 2.48389C17.0519 2.48389 18.5369 2.48389 19.6435 3.12303C20.3685 3.54164 20.9706 4.14372 21.3892 4.86874C22.0283 5.97532 22.0283 7.46029 22.0283 10.4334V16.793H6.12927V10.4334Z" stroke="#8570AD" stroke-width="4.13225"/>
</svg>
